<svg xmlns="http://www.w3.org/2000/svg" width="147" height="60" viewBox="0 0 400.4 60.3"><path fill="#7c878e" d="M396.7 18.4c-2 0-3.7 1.6-3.7 3.7 0 2.2 1.7 3.7 3.7 3.7s3.7-1.6 3.7-3.7c0-2.2-1.7-3.7-3.7-3.7zm0 6.8c-1.7 0-3-1.3-3-3.1s1.3-3.1 3-3.1 3 1.3 3 3.1-1.3 3.1-3 3.1z"></path><path fill="#7c878e" d="M398.5 21.5c0-.9-.6-1.4-1.4-1.4h-1.8V24h1.1v-1.2h.3l.8 1.2h1.2l-.9-1.4c.4-.1.7-.5.7-1.1zm-1.6.4h-.6V21h.6c.3 0 .5.2.5.4 0 .4-.2.5-.5.5zm-103.5-7.7h-28.5v2.6h12.7v32.4h2.9V16.8h12.9zm7.4 9.1c-6.7 0-10.9 5.6-10.9 13.4 0 7.9 4.7 12.9 11.8 12.9 3 0 5.5-.7 7.4-2.2v-2.7c-2.2 1.8-4.3 2.5-7.1 2.5-5.2 0-9.2-3.6-9.2-10.4H311v-1c-.2-7.4-3.6-12.5-10.2-12.5zm-8 11.1c.7-5.5 3.9-8.6 8-8.6 5 0 7.1 4.1 7.3 8.6h-15.3zM315 12.1h2.9v37.1H315zm18.1 11.2c-6.7 0-10.9 5.6-10.9 13.4 0 7.9 4.7 12.9 11.8 12.9 3 0 5.5-.7 7.4-2.2v-2.7c-2.2 1.8-4.3 2.5-7.1 2.5-5.2 0-9.2-3.6-9.2-10.4h18.2v-1c-.1-7.4-3.6-12.5-10.2-12.5zm-8 11.1c.7-5.5 3.9-8.6 8-8.6 5 0 7.1 4.1 7.3 8.6h-15.3zm25-6.5v-4h-2.9v25.3h2.9V31.5c1.2-3.2 3.6-5.5 6.7-5.5.9 0 1.7.2 2.3.5v-2.8c-.6-.2-1.3-.3-2.2-.3-3.1-.1-5.7 2-6.8 4.5zm12.1-4h2.8v25.3h-2.8zm1.5-9.7c-1.1 0-1.9.9-1.9 1.9 0 1.1.9 1.9 1.9 1.9s1.9-.9 1.9-1.9-.8-1.9-1.9-1.9zm26.5 9.7h-3.7l-12.8 11V12.1h-2.9v37.1h2.9v-13l13.2 13h3.5l-13.8-13.8z"></path><path fill="#5ce500" d="M11.2 14.9L0 21.3l17.4 10.1v20.1l11.2-6.4c.5-.3.9-1 .9-1.6V24.4L13 14.9c-.5-.3-1.3-.3-1.8 0z"></path><path fill="#5ce500" d="M12.1 48.4V34.5L0 41.5zM25 .2c-.5-.3-1.3-.3-1.8 0L10.7 7.4l24.1 13.9v27.9L47.3 42c.5-.3.9-1 .9-1.6V13.6L25 .2z"></path><path fill="#4b4e52" d="M117.9 22.5c-4.3 0-7.7 1.6-9.8 4.7-2.3 3.2-2.6 7-2.6 9 0 8.3 4.9 13.6 12.5 13.6 9.2 0 12.5-7.4 12.5-13.8 0-3.7-1.1-7-3.1-9.4-2.3-2.7-5.6-4.1-9.5-4.1zm0 22.4c-4.2 0-6.9-3.4-6.9-8.8 0-5.5 2.6-8.9 6.9-8.9 4.2 0 6.9 3.4 6.9 8.8 0 5.5-2.7 8.9-6.9 8.9zM74.8 13.6H61.7v35.6h5.8v-14h7.4c8 0 12.4-3.9 12.4-11-.1-3.1-1.3-10.6-12.5-10.6zM74.1 30h-6.6V18.9h7.4c4.3 0 6.4 1.8 6.4 5.5 0 4-2.1 5.6-7.2 5.6zm26.6-7.3c-2.2.3-3.9 1.4-5.2 3.5V23h-5.1v26.1h5.4V37.9c0-5.2.4-9.6 5.9-9.6.6 0 1.1.1 1.7.3l.7.2 1-5.3-.4-.2c-1.2-.5-2.6-.7-4-.6zm145 12.1c-1.3-.5-4-1.2-6.1-1.7-1-.3-1.9-.5-2.5-.7-2-.6-3-1.4-3-2.6 0-2.5 3.5-2.8 5-2.8 1.8 0 4.8.5 5.3 3.5l.1.4h5.2v-.5c-.4-5.3-4-7.8-10.8-7.8-5.1 0-10.2 2.4-10.2 7.6 0 2.8 1.9 5.2 5.2 6.3 1.3.5 3.5 1.1 5.6 1.7 1.2.3 2.4.7 3.3.9 1.6.5 2.4 1.4 2.4 2.6 0 2.4-2.9 3.3-5.6 3.3-2.5 0-5.5-.7-6.2-3.9l-.1-.4h-5.2l.1.6c.5 5.4 4.6 8.3 11.4 8.3 7.7 0 11.2-4.2 11.2-8.4-.1-3-1.8-5.2-5.1-6.4zm-94-9.6c-1.7-1.8-4.1-2.7-7-2.7-7.9 0-11.5 7-11.5 13.5 0 6.6 3.6 13.4 11.5 13.4 2.7 0 5-1 6.7-2.7 0 1.2 0 2.3-.1 2.7-.3 4.3-2.4 6.3-6.5 6.3-2.3 0-4.9-.8-5.4-3.1l-.1-.5H134l.1.7c.6 4.6 4.6 7.5 10.6 7.5 5.2 0 8.9-2 10.8-5.7.9-1.8 1.3-4.4 1.3-7.8V23.1h-5.1v2.1zm-6.6 19.3c-1.9 0-6.3-.9-6.3-8.8 0-5.2 2.5-8.4 6.4-8.4 3.1 0 6.3 2.2 6.3 8.4.1 5.5-2.3 8.8-6.4 8.8zm75.6-9.7c-1.3-.5-4-1.2-6.1-1.7-1-.3-1.9-.5-2.5-.7-2-.6-3-1.4-3-2.6 0-2.5 3.5-2.8 5-2.8 1.8 0 4.8.5 5.3 3.5l.1.4h5.2v-.5c-.4-5.3-4-7.8-10.8-7.8-5.1 0-10.2 2.4-10.2 7.6 0 2.8 1.9 5.2 5.2 6.3 1.3.5 3.5 1.1 5.6 1.7 1.2.3 2.4.7 3.3.9 1.6.5 2.4 1.4 2.4 2.6 0 2.4-2.9 3.3-5.6 3.3-2.5 0-5.5-.7-6.2-3.9l-.1-.4h-5.2l.1.6c.5 5.4 4.6 8.3 11.4 8.3 7.7 0 11.2-4.2 11.2-8.4 0-3-1.7-5.2-5.1-6.4zm-19.9 0c-.3-7.3-5-12.2-11.9-12.2-4 0-7.3 1.6-9.5 4.5-1.8 2.4-2.8 5.7-2.8 9.1 0 8.1 5 13.5 12.5 13.5 5.8 0 9.8-2.9 11.2-8.3l.2-.6h-5.4l-.1.3c-1.1 3.2-3.8 3.9-5.9 3.9-4.1 0-6.7-2.7-7-7.1h18.5l.1-.5c.1-.6.1-1.5.1-2.1v-.5zm-18.4-1.6c.5-3.6 2.9-5.9 6.5-5.9 2.7 0 5.9 1.6 6.3 5.9h-12.8zm-10.5-10.5c-2.2.3-3.9 1.4-5.2 3.5V23h-5.1v26.1h5.4V37.9c0-5.2.4-9.6 5.9-9.6.6 0 1.1.1 1.7.3l.7.2 1-5.3-.4-.2c-1.2-.5-2.6-.7-4-.6zm84.8-1.2c0-.9-.6-1.4-1.4-1.4h-1.8V24h1.1v-1.2h.3l.8 1.2h1.2l-.9-1.4c.4-.1.7-.5.7-1.1zm-1.5.4h-.6V21h.6c.3 0 .5.2.5.4 0 .4-.2.5-.5.5z"></path><path fill="#4b4e52" d="M255 18.4c-2 0-3.7 1.6-3.7 3.7 0 2.2 1.7 3.7 3.7 3.7s3.7-1.6 3.7-3.7c0-2.2-1.7-3.7-3.7-3.7zm0 6.8c-1.7 0-3-1.3-3-3.1s1.3-3.1 3-3.1 3 1.3 3 3.1-1.4 3.1-3 3.1z"></path></svg>